# File created by Blade
# Date/Time:  Wed Jan 21 17:10:37 2015
# Frame Rate: 120.000 fps
#------------------------------------------------------
:FULLY-SPECIFIED
:DEGREES
331
root 19.118644 4.203468 -12.128327 -221.871579 -3.360417 -181.938813
Spine 64.463609 2.940000 1.383267
Head 7.164735 2.416857 -0.121938
LeftShoulder 1.006251 -16.569824 17.082046
LeftArm -18.388605 47.004556 -95.296369
LeftForeArm 13.488136 -0.000000 48.121630
LeftHand -15.008339 -0.000000 16.845481
LeftHandThumb1 -26.253704 0.000000 33.147579
RightShoulder 5.341813 -16.433643 -18.344321
RightArm 24.272942 -45.842003 54.178528
RightForeArm -30.582497 -0.000000 49.929587
RightHand -14.210837 -0.000000 -18.181809
RightHandThumb1 -24.326973 -0.000000 -32.862282
LeftUpLeg -104.562827 -2.433390 -21.538078
LeftLeg 136.501479 -0.000000 -0.000000
LeftFoot -7.877790 35.990765 3.029426
LeftToeBase 8.897078 -0.000000 -0.000000
RightUpLeg -105.613785 -0.832811 17.223814
RightLeg 138.389579 -0.000000 -0.000000
RightFoot -9.476671 -34.519619 -2.955204
RightToeBase 3.483580 -0.000000 -0.000000
332
root 19.135598 4.145355 -12.062816 -222.029973 -3.326093 -182.003973
Spine 64.296217 3.151609 1.404390
Head 7.088609 2.354680 -0.016568
LeftShoulder 0.978400 -16.601198 17.280318
LeftArm -18.448798 46.911074 -95.234347
LeftForeArm 13.518160 -0.000000 48.694501
LeftHand -15.155827 -0.000000 16.484075
LeftHandThumb1 -26.253704 0.000000 33.147579
RightShoulder 5.315103 -16.433783 -18.452127
RightArm 24.315699 -45.979213 54.015567
RightForeArm -30.382613 -0.000000 50.320966
RightHand -14.361953 0.000000 -18.010818
RightHandThumb1 -24.326973 -0.000000 -32.862282
LeftUpLeg -104.595462 -2.157141 -21.222689
LeftLeg 135.521982 -0.000000 -0.000000
LeftFoot -8.322033 36.182286 2.516385
LeftToeBase 9.028377 -0.000000 -0.000000
RightUpLeg -105.697987 -0.861416 17.280175
RightLeg 138.190033 -0.000000 -0.000000
RightFoot -8.877163 -34.463525 -3.271676
RightToeBase 3.827595 -0.000000 -0.000000
333
root 19.160079 4.092108 -11.999547 -222.214499 -3.192038 -182.040249
Spine 64.153392 3.393689 1.510627
Head 7.065711 2.248842 0.039070
LeftShoulder 0.931551 -16.677328 17.426181
LeftArm -18.575100 46.829611 -95.210537
LeftForeArm 13.490740 -0.000000 49.230216
LeftHand -15.284447 -0.000000 16.289689
LeftHandThumb1 -26.253704 0.000000 33.147579
RightShoulder 5.310465 -16.357282 -18.550857
RightArm 24.193452 -46.062762 53.970109
RightForeArm -30.251029 -0.000000 50.777158
RightHand -14.483098 -0.000000 -17.611586
RightHandThumb1 -24.326973 -0.000000 -32.862282
LeftUpLeg -104.618637 -1.760363 -20.811706
LeftLeg 134.488343 -0.000000 -0.000000
LeftFoot -8.705650 36.289873 2.018544
LeftToeBase 9.300000 -0.000000 -0.000000
RightUpLeg -105.702365 -0.836365 17.430554
RightLeg 137.948802 -0.000000 -0.000000
RightFoot -8.309538 -34.506578 -3.343266
RightToeBase 3.909087 -0.000000 -0.000000
334
root 19.177271 4.034558 -11.931841 -222.400483 -3.134929 -182.037218
Spine 64.017918 3.528677 1.609849
Head 7.001113 2.159366 0.053918
LeftShoulder 0.874928 -16.634772 17.585203
LeftArm -18.501347 46.801364 -95.034922
LeftForeArm 13.429389 -0.000000 49.801986
LeftHand -15.351598 -0.000000 15.911720
LeftHandThumb1 -26.253704 0.000000 33.147579
RightShoulder 5.294229 -16.335290 -18.718563
RightArm 24.145158 -46.099629 53.911594
RightForeArm -30.028037 -0.000000 51.277640
RightHand -14.630793 -0.000000 -17.148758
RightHandThumb1 -24.326973 -0.000000 -32.862282
LeftUpLeg -104.563225 -1.478657 -20.534119
LeftLeg 133.234167 -0.000000 -0.000000
LeftFoot -9.126476 36.723351 1.278016
LeftToeBase 9.429956 -0.000000 -0.000000
RightUpLeg -105.742718 -0.928683 17.538842
RightLeg 137.701564 -0.000000 -0.000000
RightFoot -7.775984 -34.485332 -3.501448
RightToeBase 5.104124 -0.000000 -0.000000
335
root 19.196351 3.981344 -11.869789 -222.636874 -2.974970 -181.981707
Spine 63.908568 3.624423 1.784078
Head 6.982369 2.107521 -0.018975
LeftShoulder 0.803438 -16.688631 17.688913
LeftArm -18.649933 46.629291 -95.022008
LeftForeArm 13.429374 -0.000000 50.348878
LeftHand -15.365118 0.000000 15.566053
LeftHandThumb1 -26.253704 0.000000 33.147579
RightShoulder 5.359106 -16.262967 -18.938246
RightArm 24.004902 -46.129702 53.934660
RightForeArm -29.893354 -0.000000 51.706003
RightHand -14.598870 -0.000000 -16.828058
RightHandThumb1 -24.326973 -0.000000 -32.862282
LeftUpLeg -104.495093 -1.091165 -19.968376
LeftLeg 132.059581 -0.000000 -0.000000
LeftFoot -8.967178 36.487055 1.320087
LeftToeBase 9.228405 -0.000000 -0.000000
RightUpLeg -105.686666 -0.994698 17.746765
RightLeg 137.469683 -0.000000 -0.000000
RightFoot -7.149621 -34.321241 -3.828783
RightToeBase 5.557473 -0.000000 -0.000000
336
root 19.215642 3.927448 -11.811206 -222.860698 -2.863049 -181.950970
Spine 63.790011 3.735784 1.910677
Head 6.957163 2.029024 -0.076305
LeftShoulder 0.769556 -16.801978 17.772775
LeftArm -18.906538 46.421056 -95.054647
LeftForeArm 13.460375 -0.000000 50.896607
LeftHand -15.519257 -0.000000 15.272431
LeftHandThumb1 -26.253704 0.000000 33.147579
RightShoulder 5.360472 -16.151489 -19.067283
RightArm 23.751418 -46.150082 54.036041
RightForeArm -29.813355 -0.000000 52.099031
RightHand -14.412814 0.000000 -16.633997
RightHandThumb1 -24.326973 -0.000000 -32.862282
LeftUpLeg -104.388849 -0.706745 -19.501522
LeftLeg 130.755184 -0.000000 -0.000000
LeftFoot -8.717709 36.309474 1.432106
LeftToeBase 9.227482 -0.000000 -0.000000
RightUpLeg -105.667822 -1.082575 17.917520
RightLeg 137.262153 -0.000000 -0.000000
RightFoot -6.791912 -34.337154 -3.867119
RightToeBase 5.315678 -0.000000 -0.000000
337
root 19.242494 3.879016 -11.752371 -223.153431 -2.707080 -181.891630
Spine 63.759961 3.880614 2.139630
Head 6.917077 1.916842 -0.121097
LeftShoulder 0.782094 -16.909021 17.847528
LeftArm -19.101631 46.242312 -95.028094
LeftForeArm 13.462330 0.000000 51.464863
LeftHand -15.411088 -0.000000 14.950003
LeftHandThumb1 -26.253704 0.000000 33.147579
RightShoulder 5.318027 -16.059294 -19.209143
RightArm 23.453345 -46.068626 54.235873
RightForeArm -29.664744 -0.000000 52.612589
RightHand -14.526884 -0.000000 -16.131298
RightHandThumb1 -24.326973 -0.000000 -32.862282
LeftUpLeg -104.165581 -0.226875 -18.932239
LeftLeg 129.357160 -0.000000 -0.000000
LeftFoot -8.651406 35.992735 1.279590
LeftToeBase 9.365404 -0.000000 -0.000000
RightUpLeg -105.525872 -1.162251 18.151390
RightLeg 137.051351 -0.000000 -0.000000
RightFoot -6.389510 -34.266811 -4.132628
RightToeBase 5.385511 -0.000000 -0.000000
338
root 19.282217 3.839391 -11.697426 -223.509138 -2.434483 -181.892547
Spine 63.807988 4.220179 2.465158
Head 6.866955 1.692600 -0.104325
LeftShoulder 0.882525 -17.098218 17.939014
LeftArm -19.327005 46.014755 -95.033868
LeftForeArm 13.494164 -0.000000 51.969218
LeftHand -15.579228 0.000000 14.776052
LeftHandThumb1 -26.253704 0.000000 33.147579
RightShoulder 5.202934 -16.004165 -19.260501
RightArm 23.189277 -45.947294 54.414624
RightForeArm -29.454817 0.000000 52.988848
RightHand -14.329406 -0.000000 -15.799165
RightHandThumb1 -24.326973 -0.000000 -32.862282
LeftUpLeg -103.870521 0.469541 -18.331051
LeftLeg 127.881574 -0.000000 -0.000000
LeftFoot -8.477406 35.625743 1.059380
LeftToeBase 9.484077 -0.000000 -0.000000
RightUpLeg -105.229652 -1.095431 18.511089
RightLeg 136.814991 -0.000000 -0.000000
RightFoot -6.037654 -34.407505 -4.233106
RightToeBase 5.275444 -0.000000 -0.000000
